<svg xmlns="http://www.w3.org/2000/svg" width="280" height="93" viewBox="0 0 280 93"><defs><clipPath id="3zbba"><path d="M0 0h90.474v93H0z"/></clipPath><clipPath id="3zbbb"><path d="M247.86 25.47H280V58h-32.14z"/></clipPath></defs><g><g><g><g/><g clip-path="url(#3zbba)"><path fill="#bea95e" d="M44.364.338L44.9.07c.185-.071.489-.071.672 0l.538.267A52.205 52.205 0 0 0 56.51 4.223C76.546 9.38 90.474 27.334 90.474 47.907 90.474 72.771 70.184 93 45.237 93 20.29 93 0 72.771 0 47.907 0 27.334 13.932 9.377 33.89 4.242A53.491 53.491 0 0 0 41.3 1.748a55.17 55.17 0 0 0 3.063-1.41zM3.896 47.908c0 22.722 18.547 41.21 41.341 41.21 22.763 0 41.34-18.488 41.34-41.21 0-18.804-12.73-35.21-30.951-39.908a55.763 55.763 0 0 1-7.973-2.676 33.06 33.06 0 0 1-2.416-1.086c-.799.38-1.61.762-2.418 1.086A60.77 60.77 0 0 1 35 8C16.63 12.696 3.896 29.106 3.896 47.907z"/></g></g><g><path fill="#bea95e" d="M16.568 60.15c-1.332-.556-2.454-1.312-3.33-2.243-.876-.907-1.533-2.028-1.96-3.265-.427-1.228-.638-2.554-.638-3.939 0-2.175.428-4.419 1.265-6.703.843-2.209 2.095-4.276 3.628-6.105a19.588 19.588 0 0 1 5.677-4.537c2.205-1.185 4.724-1.788 7.483-1.788 2.254 0 4.02.507 5.254 1.502 1.252 1.012 1.887 2.289 1.887 3.8 0 1.216-.388 2.427-1.15 3.598-.76 1.166-1.977 2.231-3.615 3.173-1.627.935-3.763 1.706-6.351 2.295-2.543.577-5.635.893-9.196.94-.19.633-.32 1.25-.385 1.844A16.32 16.32 0 0 0 15 50.646c0 1.85.63 3.44 1.827 4.729 1.173 1.28 2.968 1.931 5.27 1.931 1.299 0 2.579-.179 3.797-.528A9.006 9.006 0 0 0 29.204 55c.236-.24.487-.36.742-.36.135 0 .272.054.415.17.238.19.164.485.12.662L30 57.676c-.162.483-.425.855-.815 1.118-.89.651-2.003 1.206-3.312 1.593-1.311.403-2.873.613-4.57.613-1.807 0-3.4-.29-4.735-.85zM28.18 34.916c-2.32 0-4.547.74-6.615 2.192-1.996 1.404-3.693 3.676-5.042 6.754 2.713-.05 5.038-.285 6.91-.696 1.962-.426 3.566-.97 4.707-1.617 1.153-.637 1.986-1.324 2.47-2.043.484-.71.724-1.425.724-2.125 0-.756-.257-1.382-.788-1.788-.547-.448-1.335-.677-2.366-.677z"/></g><g><path fill="#bea95e" d="M36 60.262a.66.66 0 0 1-.515-.262c-.128-.196-.082-.383-.048-.52l.006-.042 9.836-38.94c.137-.667.574-.768.82-.768h2.96c.181 0 .358.082.523.27.177.154.24.373.181.615l-9.84 38.94a.94.94 0 0 1-.923.707h-3"/></g><g><path fill="#bea95e" d="M48.68 60c-.12-.196-.082-.408-.034-.574l6.535-26.119c.104-.495.412-.769.877-.769H59c.145 0 .343.046.522.263.15.199.2.395.141.624l-6.541 26.13a.943.943 0 0 1-.93.707h-2.957A.68.68 0 0 1 48.68 60zM60 25.402c-.805 0-1.48-.274-2-.814-.563-.588-.818-1.216-.776-2.008.04-.78.34-1.455.896-2.012.56-.568 1.265-.838 2.09-.838.79 0 1.414.27 1.974.838.561.564.816 1.249.816 2.039-.074.784-.388 1.452-1 1.988a2.783 2.783 0 0 1-2 .807z"/></g><g><path fill="#bea95e" d="M70.496 60.651c-1.204 0-2.29-.208-3.232-.651-.95-.383-1.712-1-2.264-1.82-.559-.803-.907-1.79-1-2.925-.179-1.125-.075-2.415.275-3.841l2.443-9.55 1.46-5.757h-3.026c-.26 0-.395-.107-.466-.196-.106-.136-.13-.33-.07-.571l.565-2.1c.082-.638.523-.71.708-.71h3.249l1.564-6.041c.087-.322.203-.759.816-.759h2.96c.137 0 .341.055.522.27.15.253.19.468.123.73l-1.566 5.8h5.698c.078 0 .324 0 .465.183.142.174.119.408.07.633l-.573 2.126c-.14.528-.502.635-.704.635h-5.918l-1.395 5.77-2.557 10.234c-.433 1.801-.376 3.066.177 3.755.552.69 1.518 1.038 2.87 1.038.756 0 1.417-.107 1.95-.321a.945.945 0 0 1 .36-.074c.12 0 .235.032.334.099.218.147.276.392.158.641l-.623 2.43-.005.012c-.143.38-.445.632-.864.727-.436.078-.864.134-1.284.174-.445.04-.847.06-1.22.06"/></g><g><path fill="#bea95e" d="M33.246 78.32c-.07-.08-.057-.17-.057-.185v-5.411L32 73.209a.634.634 0 0 1-.166.03c-.141 0-.234-.1-.234-.239v-.715a.29.29 0 0 1 .22-.285l2.436-.911a.357.357 0 0 1 .251.008c.135.06.164.17.164.234v6.816c0 .114-.082.25-.242.25h-.993a.246.246 0 0 1-.19-.077"/></g><g><path fill="#bea95e" d="M38.465 78.068a.36.36 0 0 1-.16-.317v-.686c0-.21.14-.3.272-.3.078 0 .147.034.213.087.154.148.335.218.552.3.207.077.43.12.658.12.276 0 .516-.06.717-.17a1.49 1.49 0 0 0 .53-.484c.155-.212.277-.475.363-.784.03-.094.055-.197.074-.3-.086.08-.179.153-.289.214-.337.198-.718.252-1.134.252-.261 0-.569 0-.828-.117a1.889 1.889 0 0 1-.679-.47 2.26 2.26 0 0 1-.457-.766 2.946 2.946 0 0 1-.167-1.03c0-.384.063-.743.188-1.063.12-.32.297-.554.527-.832.221-.236.493-.42.803-.549C40 71 40.3 71 40.668 71c.41 0 .782.06 1.103.222.318.16.586.39.794.687.207.29.363.643.435 1.04.135.397.185.84.185 1.326A8.53 8.53 0 0 1 43 76.088c-.205.522-.426.965-.707 1.322-.293.358-.628.59-1.024.814-.39.18-.829.27-1.269.27-.344 0-.633-.033-.88-.106a2.167 2.167 0 0 1-.655-.32zm1.746-5.878a.901.901 0 0 0-.298.27c-.078.12-.134.262-.168.432a2.948 2.948 0 0 0-.053.578c0 .53.089.93.257 1.145.171.215.382.316.654.316.19 0 .345-.032.468-.095a.8.8 0 0 0 .31-.254c.082-.11.143-.25.185-.41a2.44 2.44 0 0 0 .061-.555c0-.516-.099-.901-.28-1.16-.181-.252-.399-.365-.679-.365a.92.92 0 0 0-.457.098z"/></g><g><path fill="#bea95e" d="M46 78.203a.485.485 0 0 1-.09-.305.67.67 0 0 1 .09-.356c.618-.48 1.12-.922 1.54-1.313.408-.382.746-.74 1.005-1.067.253-.322.455-.63.56-.92.121-.242.178-.583.178-.888 0-.354-.082-.61-.283-.788-.105-.174-.322-.262-.64-.262a1.08 1.08 0 0 0-.412.065.798.798 0 0 0-.27.183.784.784 0 0 0-.153.262.821.821 0 0 0-.053.32c0 .2-.08.366-.232.48a.88.88 0 0 1-.514.148.805.805 0 0 1-.523-.168C46.051 73.466 46 73.27 46 73c0-.162 0-.37.102-.606.088-.237.232-.462.434-.672.198-.212.464-.389.774-.528.326-.143.69-.194 1.178-.194.333 0 .645 0 .93.136.284.105.582.256.746.453.209.198.375.411.485.732.116.287.173.616.173.969 0 .435-.1.86-.291 1.269-.19.441-.437.775-.74 1.132-.297.309-.639.694-1.001.996-.22.181-.439.313-.643.499h2.375c.178 0 .3.121.3.298l-.009.637a.301.301 0 0 1-.299.25h-4.267a.273.273 0 0 1-.247-.168"/></g><g><path fill="#bea95e" d="M56.308 78.105V76.61l-2.635.002c-.232 0-.293-.143-.293-.262v-.444a.62.62 0 0 1 .078-.296c.22-.385.445-.763.668-1.116.222-.362.451-.715.68-1.047.194-.353.488-.71.741-1.054.255-.392.538-.725.843-1.122.034-.049.083-.07.095-.07h.947a.26.26 0 0 1 .272.271v4h.86c.198 0 .305.127.305.27l-.004.616a.372.372 0 0 1-.078.172.297.297 0 0 1-.202.082l-.881-.002v1.496c0 .07-.034.13-.083.183a.262.262 0 0 1-.19.08h-.85a.27.27 0 0 1-.208-.09.272.272 0 0 1-.065-.173zm.009-4.852l-.137.206-.523.784-.515.757-.293.479h1.46v-1.684z"/></g><g><path fill="#bea95e" d="M127.775 69.792c-3.263-.063-6.368-.628-9.311-1.697C115.519 67 113 65.265 111 62.814c-1.51-1.923-2.535-4.157-3-6.7-.526-2.513-.397-5.211.337-8.114a40.926 40.926 0 0 1 4.416-10.521c1.952-3.271 4.247-6.134 7.007-8.584a26.63 26.63 0 0 1 3.624-2.814 26.049 26.049 0 0 1 3.67-1.98c2.528-1.101 4.769-1.41 6.72-.975 2.08.465 3.504 1.659 4.226 3.583.815 1.86.893 4.291.286 7.164-.097.372-.286.669-.624.885-.32.242-.662.242-1.105.185a1.24 1.24 0 0 1-.887-.58c-.209-.363-.28-.675-.215-1.047.126-.622.232-1.316.312-2.118.078-.79.055-1.55-.072-2.28-.128-.727-.386-1.372-.77-1.918-.383-.57-.975-.942-1.774-1.129-1.345-.28-2.992-.015-4.944.79-2.207.902-4.336 2.339-6.48 4.28-2.494 2.266-4.654 4.927-6.478 7.98-1.823 3.079-3.249 6.32-4.128 9.794-.64 2.39-.775 4.63-.408 6.725a12.331 12.331 0 0 0 2.567 5.653c1.537 1.907 3.56 3.35 6.071 4.373 2.511 1.023 5.321 1.534 8.424 1.534 6.046 0 11.367-.31 15.958-.931 4.592-.62 8.344-1.255 11.267-1.906a77.98 77.98 0 0 0 4.164-1.023 67.607 67.607 0 0 0 3.072-.931c.99-.312 1.838-.605 2.542-.885a1.5 1.5 0 0 1 1.128-.023c.369.14.632.395.793.769.16.34.16.69 0 1.046-.16.356-.416.612-.768.767-.065.032-.931.358-2.688.977-1.728.62-4.243 1.286-7.487 2.001a118.552 118.552 0 0 1-14.135 2.257c-4.621.45-9.238.674-13.846.674"/></g><g><path fill="#bea95e" d="M135.46 58.062c-.224 0-.401-.062-.53-.139-.35-.155-.607-.386-.767-.697-.163-.311-.163-.635-.048-.978 0-.031.16-.527.48-1.487.32-.963.753-2.242 1.297-3.84a839.493 839.493 0 0 1 1.895-5.49A451.943 451.943 0 0 1 140.09 39a425.638 425.638 0 0 1 2.52-6.55 126.048 126.048 0 0 1 2.592-6.12c.158-.33.422-.588.797-.744.36-.155.72-.155 1.073 0 .384.156.65.414.793.793.134.372.134.727-.024 1.07A138.58 138.58 0 0 0 146 31.774a240.98 240.98 0 0 0-1.878 4.676 296.71 296.71 0 0 0-1.824 4.793 205.55 205.55 0 0 0-1.657 4.63c1.185-1.614 2.287-2.963 3.359-4.05 1.842-2.015 3.488-3.024 4.896-3.024.578 0 1.033.101 1.369.303.337.202.583.412.735.628.553.715.736 1.644.56 2.791-.174 1.15-.488 2.637-.935 4.478-.097.3-.183.603-.264.897-.08.294-.151.612-.217.955-.478 1.767-.784 3.148-.91 4.28-.066.681-.072 1.156-.026 1.418.049.263.104.45.169.45.063.101.183.147.36.179.175.031.327.046.456.046.544 0 1.216-.286 2.015-.862.792-.573 1.663-1.363 2.593-2.488.767-.93 1.4-1.784 1.895-2.56.496-.774.744-1.178.744-1.21.192-.34.481-.557.865-.65.383-.094.75-.047 1.102.14.352.185.593.464.673.836.097.372.048.73-.144 1.072 0 .03-.071.162-.215.395a47.25 47.25 0 0 1-.6.929 32.525 32.525 0 0 1-2.064 2.77c-1.057 1.21-2.057 2.17-2.977 2.884-1.343 1.024-2.64 1.519-3.887 1.519-1.377 0-2.4-.402-3.072-1.239a3.29 3.29 0 0 1-.719-1.605 8.099 8.099 0 0 1-.048-2c.063-.73.183-1.514.36-2.35.176-.806.376-1.707.6-2.606l.528-1.908c.158-.683.312-1.292.456-1.862.143-.559.246-1.07.312-1.536a8.72 8.72 0 0 0 .12-.813 6.96 6.96 0 0 0 .023-.442c-.129.032-.36.139-.696.361-.335.15-.784.516-1.343 1.058-.56.542-1.247 1.303-2.063 2.28-.816.977-1.769 2.271-2.857 3.885a68.06 68.06 0 0 0-1.969 2.93c-.607.962-1.142 1.847-1.606 2.582a51.99 51.99 0 0 0-1.465 2.583c-.318.496-.754.744-1.295.744"/></g><g><path fill="#bea95e" d="M159.666 57.432c-.752-.432-1.303-.8-1.666-1.234-.916-1.055-1.38-2.435-1.38-4.142 0-1.056.175-2.108.527-3.257a13.915 13.915 0 0 1 1.488-3.255c.576-.994 1.263-1.8 2.064-2.42.639-.528 1.248-.852 1.824-.978.126-.31.24-.528.335-.651 1.142-1.829 2.624-2.745 4.416-2.745 1.6 0 2.846.822 3.726 2.465.657 1.303 1 2.87 1 4.701 0 1.983-.358 3.83-1 5.535a13.907 13.907 0 0 0 3.568-1.58c.77-.496 1.368-.946 1.8-1.35.433-.403.632-.622.632-.65.273-.28.6-.428 1-.444.4-.015.744.1 1 .348.351.225.52.568.537.954.015.39-.106.721-.36 1.001l-.817.79c-.48.48-1.15.979-2.015 1.536-.864.56-1.889 1.087-3.071 1.583-1.185.495-2.496.792-3.936.884-.738.93-1.537 1.692-2.401 2.28A7.982 7.982 0 0 1 162.666 58c-1.248 0-2.247-.182-3-.568zM161.083 47c-.48.792-.864 1.646-1.151 2.545-.29.9-.432 1.736-.432 2.511 0 .342.048.73.143 1.164.095.435.272.78.527 1.162.512.56 1.345.839 2.496.839a4.92 4.92 0 0 0 3.168-1.118C164.778 53.702 163.851 53 163 52a9.577 9.577 0 0 1-1.127-2.409 9.754 9.754 0 0 1-.407-2.84v-.37zm3.383-1.643a7.7 7.7 0 0 0-.12 1.395c0 1.458.352 2.652 1.056 3.583.544.744 1.328 1.21 2.353 1.395.447-.836.782-1.73 1.007-2.73.238-1 .336-2.061.336-3.084 0-1.242-.169-2.28-.504-3.119-.337-.797-.776-1.256-1.32-1.256-.449 0-.873.187-1.274.559-.397.372-.726.9-1 1.49 0 .123-.095.308-.222.556a8.4 8.4 0 0 0-.312 1.21z"/></g><g><path fill="#bea95e" d="M184.168 57.873c-2.913 0-5.057-.807-6.432-2.419-.417-.454-.736-1.202-1.104-2.118-.319-.914-.335-2.102-.049-3.56a14.814 14.814 0 0 1 1.514-4.186c.719-1.334 1.606-2.59 2.662-3.59.991-1 2.041-1.815 3.143-2.389C185 39 186 38.75 187 38.75c.83 0 1.542.25 2.135.767.592.483.999 1.219 1.222 2.118.129.465.178.96.146 1.488a6.19 6.19 0 0 1-.289 1.536c-.384 1.21-1.056 2.032-2.015 2.465a1.503 1.503 0 0 1-1.105.048c-.384-.172-.655-.357-.814-.7a1.364 1.364 0 0 1-.048-1.07c.126-.402.367-.633.768-.79.143-.093.318-.38.478-.86.16-.482.177-.984.048-1.512-.063-.342-.151-.542-.263-.605a.59.59 0 0 0-.263-.092c-.45 0-1 .17-1.776.51-.738.343-1.536.947-2.4 1.814-.824.902-1.584 1.902-2.16 3-.577 1.133-.992 2.243-1.247 3.422-.29 1.488-.097 2.62.583 3.396.791.93 2.182 1.395 4.168 1.395 2.72 0 5.279-1.13 7.68-3.396.447-.433.839-.861 1.152-1.28.36-.404.654-.796.91-1.138a7.16 7.16 0 0 0 .72-1.119c.192-.34.481-.573.865-.697.383-.122.75-.093 1.102.094.352.185.584.456.696.813.112.358.072.706-.12 1.047 0 .032-.072.173-.173.418-.186.25-.394.568-.666.956a20.272 20.272 0 0 1-2.424 2.814c-1.44 1.408-2.983 2.459-4.632 3.188a12.507 12.507 0 0 1-5.11 1.093"/></g><g><path fill="#bea95e" d="M196.866 57.432c-.75-.432-1.303-.8-1.655-1.234-.927-1.055-1.391-2.435-1.391-4.142 0-1.056.18-2.108.527-3.257a13.69 13.69 0 0 1 1.488-3.255c.576-.994 1.263-1.8 2.064-2.42.639-.528 1.248-.852 1.824-.978.126-.31.277-.528.335-.651 1.153-1.829 2.624-2.745 4.416-2.745 1.6 0 2.846.822 3.744 2.465.639 1.303.96 2.87.96 4.701 0 1.983-.336 3.83-1.008 5.535a13.648 13.648 0 0 0 3.598-1.58c.77-.496 1.368-.946 1.8-1.35.432-.403.65-.622.65-.65a1.35 1.35 0 0 1 .982-.444c.4-.015.744.1 1.033.348.318.225.487.568.504.954a1.35 1.35 0 0 1-.36 1.001c-.064.063-.377.326-.816.79-.481.48-1.151.979-2.016 1.536-.864.56-1.889 1.087-3.071 1.583-1.185.495-2.474.792-3.936.884-.736.93-1.538 1.692-2.399 2.28A7.995 7.995 0 0 1 199.866 58c-1.248 0-2.247-.182-3-.568zM198.283 47a11.82 11.82 0 0 0-1.151 2.545c-.289.9-.432 1.736-.432 2.511 0 .342.048.73.143 1.164.097.435.272.78.527 1.162.512.56 1.345.839 2.496.839 1.185 0 2.239-.372 3.134-1.118-1-.401-1.95-1.103-2.748-2.103a8.118 8.118 0 0 1-1.177-2.409 9.684 9.684 0 0 1-.408-2.84v-.37zm3.383-1.643c-.08.435-.12.9-.12 1.395 0 1.458.352 2.652 1.056 3.583.544.744 1.328 1.21 2.398 1.395a15.14 15.14 0 0 0 1-2.73c.186-1 .298-2.061.298-3.084 0-1.242-.169-2.28-.504-3.119-.335-.797-.794-1.256-1.32-1.256-.474 0-.873.187-1.271.559-.4.372-.73.9-.984 1.49-.032.123-.114.308-.219.556-.15.373-.254.778-.334 1.21z"/></g><g><path fill="#bea95e" d="M218.342 58c-.99 0-1.767-.178-2.342-.564-.546-.436-1-.784-1.208-1.188-.792-1.147-1.082-2.799-.938-4.955.146-2.156.76-4.97 1.849-8.445.48-1.457.999-2.938 1.56-4.443C217.82 36.9 218.39 35.436 219 34a88.53 88.53 0 0 1 1.695-4.086c.575-1.304 1.104-2.497 1.583-3.583.16-.331.423-.589.792-.745a1.423 1.423 0 0 1 1.128 0c.352.156.6.414.744.791.144.374.135.729-.025 1.071-2.975 6.639-5.118 12.035-6.43 16.192-.93 2.883-1.487 5.257-1.68 7.117-.16 1.243-.177 2.243-.048 2.77.128.574.241.969.432 1.185.063.124.183.288.36.349.175.11.449.164.79.164.576 0 1.266-.294 2.065-.885.8-.588 1.648-1.426 2.594-2.51.334-.468.686-.917 1-1.35.325-.48.605-.822.845-1.164.24-.316.487-.744.744-1.21.192-.34.481-.558.865-.652a1.514 1.514 0 0 1 1.102.14c.352.186.584.465.698.837.112.372.055.73-.169 1.072 0 .031-.085.162-.215.395-.145.23-.345.542-.6.93-.27.387-.561.822-.913 1.301-.357.482-.736.972-1.151 1.467-1.025 1.21-2.016 2.171-2.975 2.885-1.345 1.024-2.641 1.519-3.89 1.519"/></g><g><path fill="#bea95e" d="M241 58c-1.352 0-2.393-.464-3.129-1.426-.67-.839-1.054-1.97-1.15-3.396a16.624 16.624 0 0 1-1.297 1.465c-.424.45-.896.86-1.343 1.233-1.081.9-2.224 1.505-3.312 1.813-1.153.373-2.224.39-3.215.047a4.122 4.122 0 0 1-1.705-1.162c-.464-.574-.849-1.162-1.031-1.908-.384-1.364-.303-3.024.24-4.978A18 18 0 0 1 227 45.313c.93-1.314 2-2.588 3.192-3.675 1.153-1.023 2.306-1.77 3.457-2.234 1.15-.464 2.19-.588 3.12-.405.231.096.447.204.767.359.32.156.624.412.913.767.286.357.495.874.622 1.467.128.62.08 1.407-.144 2.407-.063.337-.263.631-.598.848-.329.218-.696.28-1.082.152-.383 0-.687-.222-.91-.547-.224-.326-.337-.675-.192-1.047.095-.496.135-.86.12-1.093-.017-.233-.042-.38-.074-.443-.063-.092-.112-.139-.191-.139-.207-.06-.696.04-1.415.269-.721.299-1.585.847-2.473 1.686-.99.899-1.864 1.931-2.614 3.093a13.193 13.193 0 0 0-1.657 3.652c-.352 1.21-.464 2.242-.335 3.096.126.853.494 1.372 1.008 1.557.35.126.847.103 1.486-.084.64-.156 1.393-.583 2.257-1.265.743-.589 1.552-1.488 2.543-2.735.993-1.172 2-2.895 3.025-5.127.175-.342.407-.582.744-.723.335-.15.679-.15 1.03-.023.401.156.616.39.793.698.175.31.215.637.12.977-.64 2.326-.952 4.142-.935 5.445.014 1.303.198 2.17.552 2.606.063.092.158.147.287.254.128.08.32.118.584.118.567 0 1.264-.295 2.08-.885.816-.589 1.687-1.427 2.614-2.511.801-.931 1.448-1.776 1.946-2.537.495-.76.742-1.155.742-1.187.192-.34.48-.557.864-.651a1.523 1.523 0 0 1 1.105.14c.352.217.576.505.649.86.118.357.07.706-.122 1.048 0 .032-.08.162-.24.395-.16.232-.367.542-.638.932-.241.386-.553.82-.92 1.3-.369.481-.761.971-1.176 1.467-.513.62-1.025 1.17-1.537 1.652a21.07 21.07 0 0 1-1.489 1.28C243.504 57.52 242.208 58 241 58"/></g><g><g/><g clip-path="url(#3zbbb)"><path fill="#bea95e" d="M265.274 30.798c.063.372-.017.721-.274 1.047-.19.325-.493.519-.877.582L256.155 34a162.766 162.766 0 0 0-2.039 5.195c-.592 1.6-1.116 3.096-1.56 4.491-.927 2.917-1.488 5.314-1.68 7.071-.16 1.243-.177 2.243-.048 2.77.172.574.271.969.432 1.185.063.126.183.288.36.349.175.11.439.164.79.164.59 0 1.266-.294 2.064-.885.802-.588 1.649-1.426 2.526-2.51.403-.436.746-.83 1.052-1.329.303-.448.582-.845.839-1.185.289-.404.544-.793.767-1.165.194-.34.48-.565.864-.674.384-.107.753-.07 1.105.118.373.185.576.464.67.836.098.372.049.73-.143 1.072 0 .031-.071.162-.215.395a33.81 33.81 0 0 1-1.511 2.231c-.352.484-.738.972-1.153 1.467-.991 1.18-1.984 2.156-2.975 2.932-1.377.992-2.673 1.472-3.89 1.472-.99 0-1.766-.178-2.327-.566-.558-.434-.982-.782-1.27-1.186-.813-1.147-1.072-2.799-.912-4.955.16-2.156.783-4.97 1.87-8.445.45-1.364.922-2.728 1.417-4.094a118.48 118.48 0 0 1 1.56-4.093L251.21 35h-.287c-.352 0-.655-.115-.924-.316a1.344 1.344 0 0 1-.469-.816c-.063-.372.008-.72.217-1.046.252-.326.504-.52.888-.582l3.364-.698c.46-.96.86-1.876 1.244-2.745.384-.867.756-1.691 1.105-2.466.158-.331.423-.589.79-.745a1.309 1.309 0 0 1 1.08 0c.385.156.649.414.781.793.154.372.146.727 0 1.07l-1.549 3.442 6.097-1.209c.383-.063.742.015 1.079.232.373.216.55.512.647.884"/></g><g clip-path="url(#3zbbb)"><path fill="#bea95e" d="M266.808 57.874c-2.912 0-5.056-.807-6.432-2.421-.376-.453-.782-1.2-1.103-2.116-.273-.915-.337-2.102-.048-3.56a15.005 15.005 0 0 1 1.488-4.117c.704-1.317 1.6-2.52 2.688-3.606a13.03 13.03 0 0 1 3.023-2.28c1.088-.588 2.095-.93 3.025-1.023.862-.093 1.615.023 2.256.349.638.325 1.119.844 1.437 1.559.352.868.392 1.9.123 3.093-.265 1.196-.827 2.396-1.657 3.606a12.817 12.817 0 0 1-1.895 2.141 12.544 12.544 0 0 1-2.328 1.675c-1.568.931-3.328 1.473-5.28 1.629.415.9 1.073 1.505 1.968 1.813a8.412 8.412 0 0 0 2.735.465c2.753 0 5.295-1.081 7.63-3.396.45-.433.848-.862 1.2-1.28.362-.405.656-.799.913-1.139.289-.371.53-.744.721-1.118.192-.34.479-.573.862-.697a1.369 1.369 0 0 1 1.105.094c.352.185.584.455.696.813.065.358.065.706-.12 1.047 0 .032-.072.172-.216.42-.145.248-.352.566-.599.954-.297.387-.642.83-1.058 1.326-.415.496-.879.992-1.39 1.488-1.44 1.407-2.986 2.459-4.632 3.188a12.502 12.502 0 0 1-5.112 1.093M270 41.495a.62.62 0 0 0-.264.047c-.45.063-1.065.279-1.847.653-.784.372-1.594.975-2.424 1.805a13.157 13.157 0 0 0-2.112 2.8 12.042 12.042 0 0 0-1.249 3.2 9.682 9.682 0 0 0 4.008-1.316c1.231-.684 2.264-1.684 3.097-2.908.607-.868 1.007-1.675 1.2-2.42.191-.743.206-1.285.048-1.627 0-.156-.16-.234-.457-.234"/></g></g><g><path fill="#bea95e" d="M180.487 65l-1.098.247c-.209-1.122-1.14-1.84-2.389-1.84-1.28 0-2.141.678-2.141 1.674 0 .832.529 1.206 1.404 1.385l2.028.458c1.292.277 2.348.929 2.348 2.41 0 1.666-1.374 2.757-3.46 2.757-1.972 0-3.556-1.01-3.779-2.772l1.153-.235c.209 1.303 1.278 2.037 2.724 2.037 1.416 0 2.264-.706 2.264-1.732 0-.872-.47-1.22-1.541-1.454l-2.07-.456c-1.196-.265-2.24-.887-2.24-2.369 0-1.592 1.31-2.66 3.31-2.66 1.862 0 3.167 1.026 3.487 2.55"/></g><g><path fill="#bea95e" d="M186 63.613v8.297h-1.08v-8.297h-3.46v-.983h8.017v.983H186"/></g><g><path fill="#bea95e" d="M199.81 67.27c0 2.73-2.113 4.821-4.81 4.821-2.71 0-4.82-2.091-4.82-4.82 0-2.688 2.11-4.82 4.82-4.82 2.697 0 4.81 2.132 4.81 4.82m-1.113 0c0-2.133-1.626-3.795-3.697-3.795-2.084 0-3.71 1.662-3.71 3.795 0 2.147 1.626 3.78 3.71 3.78 2.071 0 3.697-1.633 3.697-3.78"/></g><g><path fill="#bea95e" d="M204.608 67.934h-1.71v3.976H201.8v-9.28h4.309c1.82 0 3.042 1.053 3.042 2.646s-1.223 2.658-3.042 2.658h-.169l3.6 3.976h-1.376zm1.5-.996c1.167 0 1.944-.667 1.944-1.662 0-.999-.777-1.663-1.943-1.663h-3.21v3.325z"/></g><g><path fill="#bea95e" d="M217.906 71.91h-6.796v-9.28h6.782v.983h-5.684v3.144h5.281v.984h-5.28v3.17h5.697v.999"/></g></g></g></svg>